HIERARCHY
ROOT Hips
{
	OFFSET 0.000000 0.000000 0.000000
	CHANNELS 6 Xposition Yposition Zposition Yrotation Xrotation Zrotation
	JOINT Chest
	{
		OFFSET 0.000000 -0.009281 11.569106
		CHANNELS 3 Yrotation Xrotation Zrotation
		JOINT Chest2
		{
			OFFSET -0.000000 0.016865 9.269641
			CHANNELS 3 Yrotation Xrotation Zrotation
			JOINT Chest3
			{
				OFFSET -0.000000 0.000001 8.374491
				CHANNELS 3 Yrotation Xrotation Zrotation
				JOINT Chest4
				{
					OFFSET -0.000000 0.000001 8.374493
					CHANNELS 3 Yrotation Xrotation Zrotation
					JOINT Neck
					{
						OFFSET -0.000000 0.000002 12.152554
						CHANNELS 3 Yrotation Xrotation Zrotation
						JOINT Head
						{
							OFFSET -0.000000 0.040101 7.802319
							CHANNELS 3 Yrotation Xrotation Zrotation
							End Site
							{
								OFFSET -0.000000 0.020947 14.853096
							}
						}
					}
					JOINT RightCollar
					{
						OFFSET 2.894404 0.000001 6.791374
						CHANNELS 3 Yrotation Xrotation Zrotation
						JOINT RightShoulder
						{
							OFFSET 13.574684 0.000001 0.000000
							CHANNELS 3 Yrotation Xrotation Zrotation
							JOINT RightElbow
							{
								OFFSET 23.923903 0.000002 0.000000
								CHANNELS 3 Yrotation Xrotation Zrotation
								JOINT RightWrist
								{
									OFFSET 19.846718 0.012767 0.000000
									CHANNELS 3 Yrotation Xrotation Zrotation
									End Site
									{
										OFFSET 14.973145 0.000001 0.000000
									}
								}
							}
						}
					}
					JOINT LeftCollar
					{
						OFFSET -2.894404 0.000001 6.791374
						CHANNELS 3 Yrotation Xrotation Zrotation
						JOINT LeftShoulder
						{
							OFFSET -13.574684 -0.000001 0.000000
							CHANNELS 3 Yrotation Xrotation Zrotation
							JOINT LeftElbow
							{
								OFFSET -23.923903 -0.000002 0.000000
								CHANNELS 3 Yrotation Xrotation Zrotation
								JOINT LeftWrist
								{
									OFFSET -19.846718 0.012763 0.000000
									CHANNELS 3 Yrotation Xrotation Zrotation
									End Site
									{
										OFFSET -14.973145 -0.000001 0.000000
									}
								}
							}
						}
					}
				}
			}
		}
	}
	JOINT RightHip
	{
		OFFSET 9.469263 0.004643 0.045487
		CHANNELS 3 Yrotation Xrotation Zrotation
		JOINT RightKnee
		{
			OFFSET 0.000000 0.002661 -40.478676
			CHANNELS 3 Yrotation Xrotation Zrotation
			JOINT RightAnkle
			{
				OFFSET 0.000000 0.049106 -35.224068
				CHANNELS 3 Yrotation Xrotation Zrotation
				JOINT RightToe
				{
					OFFSET -0.000001 12.539529 -6.151390
					CHANNELS 3 Yrotation Xrotation Zrotation
					End Site
					{
						OFFSET -0.000001 5.044994 -1.291870
					}
				}
			}
		}
	}
	JOINT LeftHip
	{
		OFFSET -9.469263 0.004641 0.045487
		CHANNELS 3 Yrotation Xrotation Zrotation
		JOINT LeftKnee
		{
			OFFSET 0.000000 0.002661 -40.478676
			CHANNELS 3 Yrotation Xrotation Zrotation
			JOINT LeftAnkle
			{
				OFFSET 0.000000 0.049106 -35.224068
				CHANNELS 3 Yrotation Xrotation Zrotation
				JOINT LeftToe
				{
					OFFSET -0.000001 12.539529 -6.151390
					CHANNELS 3 Yrotation Xrotation Zrotation
					End Site
					{
						OFFSET -0.000001 5.044994 -1.291870
					}
				}
			}
		}
	}
}
MOTION
Frames: 12
Frame Time: 0.016667
5.610680 15.446045 83.163216 -2.174860 -0.112018 -104.469868 -0.900263 -4.890044 0.480229 -0.370862 -2.181902 0.225773 -0.370862 -2.181902 0.225774 -0.277307 -1.636565 0.167986 1.940285 -15.110947 -2.547872 2.670127 8.136347 -4.036957 9.895330 8.965334 0.571869 41.747329 -15.370880 -18.441528 -41.663785 -63.240360 106.960831 -63.485611 38.048515 35.358629 -9.001043 5.472955 -5.214326 -41.760695 -13.904829 22.476740 18.977723 -60.918047 -79.540784 36.524788 25.229646 -67.810917 0.529711 -7.280603 -19.751862 2.635731 -1.930672 -8.043341 6.894863 8.179798 4.566385 0.468659 0.323291 -0.199270 -4.187962 0.402722 11.713267 -2.306400 -0.602988 9.493125 4.349163 -2.277024 6.906186 0.181515 -0.285349 0.198903 
6.043392 15.742027 83.146797 -2.275327 -0.178781 -104.601567 -0.850846 -4.914679 0.459020 -0.349534 -2.195700 0.225524 -0.349533 -2.195699 0.225524 -0.261308 -1.646905 0.167865 1.896231 -15.098092 -2.532869 2.593114 8.159532 -4.025519 9.892945 8.926618 0.571642 41.726773 -15.383239 -18.397528 -41.636478 -63.176299 106.972469 -63.520110 38.087819 35.341687 -8.978069 5.410750 -5.204936 -41.818803 -13.901703 22.409089 18.979164 -60.879955 -79.471293 36.542520 25.225697 -67.821087 0.211909 -7.575364 -19.296691 2.684891 -2.068516 -8.412650 7.240990 8.320213 4.652026 0.377642 0.290996 -0.225898 -4.440146 0.061368 11.931237 -2.303810 -0.695902 9.411103 4.501148 -1.804888 6.994369 0.182767 -0.254468 0.206771 
6.461509 16.054262 83.123962 -2.366108 -0.247996 -104.751394 -0.796986 -4.935821 0.438301 -0.326132 -2.212735 0.224797 -0.326132 -2.212736 0.224797 -0.243754 -1.659673 0.167396 1.846954 -15.090676 -2.503736 2.511744 8.172555 -3.989613 9.889235 8.916225 0.563660 41.689347 -15.395573 -18.358263 -41.655285 -63.111747 107.030478 -63.561023 38.128008 35.329348 -8.943607 5.365249 -5.212299 -41.881771 -13.954210 22.315618 18.978393 -60.836386 -79.404173 36.579607 25.215752 -67.804715 -0.170514 -7.782446 -18.645710 2.791695 -2.362551 -8.912002 7.610621 8.536082 4.736852 0.278367 0.261689 -0.264409 -4.698736 -0.243996 12.086426 -2.303262 -0.804337 9.400816 4.701567 -1.349114 7.109420 0.157590 -0.218094 0.219978 
6.851756 16.387203 83.096992 -2.437466 -0.311586 -104.915496 -0.738275 -4.936808 0.408475 -0.300659 -2.226826 0.220436 -0.300659 -2.226827 0.220438 -0.224662 -1.670228 0.164212 1.796617 -15.103845 -2.460622 2.434024 8.147372 -3.927908 9.880597 8.909329 0.556434 41.627773 -15.410488 -18.325473 -41.680109 -63.044135 107.106321 -63.585844 38.145042 35.324547 -8.916394 5.338284 -5.211982 -41.919921 -14.049574 22.195705 18.941052 -60.835587 -79.323454 36.627467 25.197565 -67.754787 -0.618290 -7.841038 -17.884318 2.940688 -2.887286 -9.540113 8.006171 8.826941 4.921899 0.179424 0.250946 -0.335901 -4.956223 -0.496203 12.173495 -2.306872 -0.948085 9.539291 4.926992 -0.907729 6.995823 0.125734 -0.165406 0.262304 
7.219233 16.720606 83.067535 -2.487037 -0.393480 -105.113647 -0.658465 -4.937386 0.383093 -0.274070 -2.233619 0.214936 -0.274070 -2.233620 0.214935 -0.204741 -1.675312 0.160179 1.751786 -15.140252 -2.408255 2.370485 8.079193 -3.846773 9.863821 8.903581 0.556339 41.550845 -15.406091 -18.304559 -41.728272 -62.987390 107.213049 -63.588426 38.144172 35.331466 -8.894166 5.324558 -5.198867 -41.928714 -14.172562 22.048457 18.857777 -60.889695 -79.221704 36.697083 25.192471 -67.673747 -1.089877 -7.753922 -17.215191 3.118443 -3.656449 -10.157800 8.407717 9.193600 5.203928 0.104647 0.254944 -0.380490 -5.178781 -0.690601 12.243607 -2.344480 -1.113645 9.828775 5.169431 -0.468923 6.906251 0.112191 -0.114326 0.300226 
7.548868 17.047932 83.035477 -2.502625 -0.470959 -105.357314 -0.581188 -4.919868 0.359635 -0.252142 -2.230063 0.217025 -0.252142 -2.230064 0.217027 -0.188290 -1.672639 0.161828 1.719923 -15.198271 -2.354088 2.332227 7.971110 -3.757349 9.850866 8.894633 0.552087 41.481815 -15.396228 -18.286114 -41.768403 -62.963785 107.309437 -63.586247 38.132489 35.337804 -8.866707 5.306000 -5.187133 -41.918015 -14.320233 21.894221 18.686930 -60.947561 -79.051776 36.758630 25.186066 -67.594475 -1.623957 -7.476040 -16.784702 3.379917 -4.734856 -10.639030 8.754557 9.660587 5.614788 0.067025 0.273780 -0.398255 -5.370259 -0.804390 12.407887 -2.396763 -1.332564 10.257776 5.358964 0.002982 6.722674 0.140264 -0.072074 0.326810 
7.850722 17.353378 82.998283 -2.513070 -0.536466 -105.652494 -0.515529 -4.913009 0.319843 -0.236324 -2.218189 0.229094 -0.236325 -2.218190 0.229092 -0.176390 -1.663732 0.170939 1.696598 -15.271640 -2.294801 2.312040 7.834669 -3.655162 9.829366 8.889478 0.545443 41.445076 -15.410563 -18.263106 -41.815897 -62.943916 107.407341 -63.573823 38.118285 35.344139 -8.864810 5.319522 -5.196139 -41.885384 -14.458150 21.819439 18.541626 -60.987579 -78.910111 36.798416 25.165690 -67.521570 -2.237211 -6.967571 -16.536576 3.711032 -6.275517 -11.044111 8.974540 10.290207 6.165252 0.129566 0.332528 -0.400292 -5.533159 -0.897528 12.761583 -2.494032 -1.557496 10.645699 5.523287 0.486029 6.400330 0.191908 -0.043885 0.350918 
8.133490 17.642668 82.952545 -2.546665 -0.553911 -106.011223 -0.489644 -4.921942 0.280906 -0.231398 -2.203552 0.243743 -0.231398 -2.203552 0.243742 -0.172649 -1.652759 0.181951 1.673731 -15.350439 -2.226510 2.296065 7.688145 -3.536023 9.805385 8.900566 0.542208 41.439813 -15.449902 -18.242691 -41.938437 -62.933541 107.560726 -63.557929 38.103870 35.352885 -8.861339 5.355428 -5.200026 -41.863466 -14.553260 21.819825 18.475773 -61.029823 -78.844835 36.813074 25.111119 -67.456437 -2.964166 -6.211481 -16.354222 4.070596 -8.328109 -11.303269 8.946131 11.090224 6.736701 0.367341 0.464354 -0.391863 -5.764932 -1.000670 13.210916 -2.542339 -1.741380 10.895741 5.647751 0.930868 6.240318 0.238017 -0.024783 0.357840 
8.371321 17.942665 82.895340 -2.603053 -0.499813 -106.454003 -0.520135 -4.927056 0.293708 -0.243221 -2.203966 0.253511 -0.243221 -2.203967 0.253508 -0.181479 -1.653077 0.189231 1.652146 -15.407732 -2.151219 2.284668 7.581560 -3.403393 9.803072 8.947786 0.536952 41.444789 -15.501002 -18.232037 -42.144193 -62.926745 107.773316 -63.539331 38.081836 35.371808 -8.842310 5.413895 -5.207227 -41.828215 -14.578863 21.854741 18.511892 -61.115693 -78.888753 36.793392 25.038396 -67.414923 -3.837498 -5.227170 -16.197133 4.480841 -10.743569 -11.348876 8.585754 11.908820 7.193559 0.757615 0.705406 -0.392533 -6.106978 -1.070489 13.607929 -2.529692 -1.907388 11.065235 5.755785 1.326144 6.314765 0.270470 -0.009518 0.360263 
8.555470 18.233162 82.826668 -2.706349 -0.423756 -106.885384 -0.556996 -4.959395 0.294528 -0.270991 -2.225376 0.252792 -0.270991 -2.225376 0.252790 -0.202297 -1.669145 0.188578 1.628697 -15.427268 -2.074700 2.269652 7.545025 -3.269184 9.826301 8.972644 0.531059 41.454491 -15.525052 -18.228151 -42.369788 -62.898188 107.976289 -63.528675 38.063162 35.389584 -8.804129 5.431392 -5.227437 -41.755385 -14.543214 21.867510 18.623884 -61.239865 -79.039912 36.778714 24.989634 -67.406297 -4.735806 -4.185842 -16.224196 4.874761 -13.255917 -11.296119 7.878533 12.536571 7.715353 1.283865 1.075444 -0.374470 -6.481741 -1.107875 13.853389 -2.484349 -2.119548 11.283693 5.880270 1.706590 6.460760 0.267405 -0.009776 0.348228 
8.733576 18.526644 82.751884 -3.016623 -0.277555 -107.351197 -0.717627 -5.171015 0.359784 -0.305880 -2.265085 0.240448 -0.305880 -2.265084 0.240447 -0.228488 -1.698934 0.179177 1.605056 -15.397963 -2.001907 2.252250 7.599161 -3.141952 9.864334 8.931731 0.522584 41.494270 -15.491014 -18.219974 -42.518443 -62.824620 108.057561 -63.536756 38.059569 35.407991 -8.740504 5.329641 -5.267088 -41.651388 -14.513717 21.781986 18.696541 -61.320134 -79.185580 36.801732 25.003606 -67.419766 -5.742518 -3.358703 -16.323286 5.281354 -15.694279 -11.204083 6.987800 13.016274 7.931532 1.784308 1.471137 -0.392741 -7.056456 -1.255412 14.028621 -2.397711 -2.406109 11.675497 6.147473 2.117503 6.751068 0.147748 0.001925 0.148597 
8.833972 18.764744 82.673409 -3.189426 -0.192786 -107.660809 -0.776929 -5.277507 0.302692 -0.336600 -2.312462 0.220952 -0.336600 -2.312461 0.220953 -0.251579 -1.734471 0.164415 1.580506 -15.341570 -1.938368 2.229439 7.703589 -3.032271 9.911105 8.807288 0.514202 41.566025 -15.380830 -18.199563 -42.586045 -62.691363 108.012222 -63.564800 38.088417 35.420077 -8.686590 5.140575 -5.343550 -41.528093 -14.576631 21.623288 18.672735 -61.307122 -79.244961 36.864904 25.097882 -67.432176 -6.662159 -2.567112 -16.579504 5.838850 -17.966761 -11.137600 5.992149 13.334447 7.694420 2.164831 1.895770 -0.415883 -7.390499 -1.215621 13.973186 -2.359266 -2.773074 12.126544 6.277300 2.511620 6.901015 0.113652 -0.007526 0.155321 
